<?xml version="1.0" standalone="no"?>
<!DOCTYPE svg PUBLIC "-//W3C//DTD SVG 20010904//EN"
 "http://www.w3.org/TR/2001/REC-SVG-20010904/DTD/svg10.dtd">
<svg version="1.0" xmlns="http://www.w3.org/2000/svg"
 width="512.000000pt" height="512.000000pt" viewBox="0 0 512.000000 512.000000"
 preserveAspectRatio="xMidYMid meet">

<g transform="translate(0.000000,512.000000) scale(0.100000,-0.100000)"
fill="#333333" stroke="none">
<path d="M1655 5108 c-353 -40 -708 -194 -990 -430 -472 -394 -721 -1014 -654
-1626 113 -1040 1063 -1791 2096 -1657 310 41 638 170 862 342 l45 34 865
-865 c477 -475 882 -872 901 -882 24 -13 57 -19 106 -19 61 0 77 4 120 30 30
19 60 49 79 79 26 43 30 59 30 120 0 49 -6 82 -19 106 -10 19 -407 424 -882
900 l-863 865 65 95 c75 109 179 315 223 441 308 893 -108 1887 -961 2294
-266 127 -536 187 -825 184 -65 -1 -154 -6 -198 -11z m495 -483 c564 -123 974
-537 1097 -1106 26 -119 25 -419 0 -539 -43 -197 -123 -387 -223 -527 -218
-305 -512 -500 -876 -580 -118 -25 -438 -25 -556 0 -664 146 -1122 708 -1122
1377 0 693 495 1272 1185 1386 106 18 393 11 495 -11z"/>
</g>
</svg>
